<?xml version="1.0" encoding="utf-8"?>
<!-- Generator: Adobe Illustrator 23.0.3, SVG Export Plug-In . SVG Version: 6.00 Build 0)  -->
<svg version="1.1" id="Layer_1" xmlns="http://www.w3.org/2000/svg" xmlns:xlink="http://www.w3.org/1999/xlink" x="0px" y="0px"
	 viewBox="0 0 140.2 22.5" style="enable-background:new 0 0 140.2 22.5;" xml:space="preserve">
<style type="text/css">
	.st0{fill:#C11F43;}
	.st1{fill:#8E1C3B;}
	.st2{fill:#D51D51;}
	.st3{fill:#FFFFFF;}
	.st4{fill:#414042;}
	.st5{fill:#A7A9AC;}
</style>
<g>
	<path class="st3" d="M20.2,1.6c-0.6-0.2-1.1-0.3-1.7-0.4h0C16.4,1,14.4,1.9,13,3.5c-0.5,0.6-0.9,1.3-1.2,2
		c-1.8,5-0.7,10.4,0.3,13.4c-1.1-3-2.5-8.1-1-13.1c0.3-1,0.9-2,1.6-2.7C11,1.4,8.3,0.7,5.8,1.6c-3.4,1.3-5.1,5-3.9,8.4
		C4.6,17.3,13,21.3,13,21.3s2.4-1.2,4.5-2.8c0,0,0,0,0.1-0.1c2.4-1.9,5.1-4.7,6.5-8.4C25.4,6.6,23.6,2.8,20.2,1.6z M8.8,9.8
		c-1.1,0.4-2.3-0.2-2.7-1.3C5.7,7.4,6.2,6.1,7.4,5.7C8.5,5.3,9.7,5.9,10.1,7C10.5,8.1,9.9,9.3,8.8,9.8z M20,8.5
		c-0.4,1.1-1.6,1.7-2.8,1.3C16.1,9.3,15.6,8.1,16,7c0.4-1.1,1.6-1.7,2.8-1.3C19.8,6.1,20.4,7.4,20,8.5z"/>
	<g>
		<path class="st3" d="M35.5,9.8l-1-0.3c-1.4-0.4-1.7-0.8-1.7-1.4c0-0.7,0.6-1.2,1.5-1.2c0.5,0,0.8,0.1,1.1,0.2l0.4,1.8h1.7l0.1-2.3
			c-1.1-0.5-2-0.8-3.3-0.8c-2.8,0-4.3,1.5-4.3,3.4c0,1.5,0.9,2.6,2.5,3.1l1.1,0.3c1.4,0.4,1.7,0.8,1.7,1.5c0,0.8-0.7,1.2-1.8,1.2
			c-0.6,0-1.1-0.1-1.5-0.3l-0.3-2h-1.7L30,15.5c1.1,0.6,2.2,0.9,3.6,0.9c2.9,0,4.6-1.2,4.6-3.4C38.3,11.5,37.5,10.4,35.5,9.8z"/>
		<path class="st3" d="M48.4,14.9c-0.3,0-0.5-0.2-0.5-0.6V9.7c0-2.8-1-3.9-3.7-3.9c-3,0-4.6,1.2-4.7,2.9c0.2,0.7,0.7,1,1.4,1
			c0.8,0,1.5-0.6,1.5-1.9L42.6,7c0.2,0,0.4,0,0.6,0c1.3,0,1.7,0.5,1.7,2.4v0.7c-0.6,0.2-1.1,0.3-1.6,0.4c-3.2,0.9-4,1.9-4,3.4
			c0,1.7,1.1,2.6,2.7,2.6c1.4,0,2.1-0.6,3-1.5c0.3,1,1,1.5,2.2,1.5c1.2,0,2-0.4,2.5-1.6l-0.5-0.4C48.8,14.8,48.7,14.9,48.4,14.9z
			 M43.5,14.8c-0.7,0-1.2-0.5-1.2-1.5c0-1,0.6-1.7,1.5-2.1c0.2-0.1,0.6-0.2,1-0.3v3.3C44.2,14.6,43.9,14.8,43.5,14.8z"/>
		<polygon class="st3" points="57.6,6.2 55.9,6.2 55.9,7.1 57.2,7.3 55.4,12.6 53.5,7.3 54.8,7.1 54.8,6.2 53.1,6.2 49.5,6.2 
			49,6.2 49,7.1 50,7.3 53.7,16.1 55.2,16.1 58.6,7.3 59.8,7.1 59.8,6.2 59.1,6.2 		"/>
		<path class="st3" d="M69.5,10.2c0-2.5-1.5-4.3-4.2-4.3c-2.7,0-5.3,1.9-5.3,5.3c0,3.3,2.1,5.3,5.1,5.3c2,0,3.5-0.8,4.3-2.4
			l-0.7-0.7c-0.6,0.6-1.4,1.1-2.5,1.1c-1.4,0-2.5-1-2.7-3.1h5.9C69.5,11,69.5,10.6,69.5,10.2z M65.2,10.2h-1.8
			c0.1-2.5,0.8-3.3,1.6-3.3c0.7,0,1.4,0.7,1.4,2C66.4,9.8,66.2,10.2,65.2,10.2z"/>
		<path class="st3" d="M86.1,11.8V9.7c0-2.5-1-3.5-2.6-3.5c-1.3,0-2.6,0.7-3.8,2.1c-0.3-1.5-1.1-2.1-2.3-2.1c-1.2,0-2.5,0.7-3.7,2.2
			l-0.1-1.9l-0.2-0.2l-2.5,0.6v0.5l1.8,0.1c0,1,0.1,2,0.1,3.3v1c0,1,0,2.5,0,3.6L71,15.6v0.5h1.7h1.1h1.6v-0.5l-1.6-0.2
			c0-1.1,0-2.6,0-3.6V8.9c1.4-1.5,2.4-1.9,3.4-1.9c1.1,0,1.8,0.7,1.8,2.7v2c0,1,0,2.5,0,3.6l-1.7,0.2v0.5h1.7H80h1.6v-0.5L80,15.4
			c0-1,0-2.5,0-3.6v-2c0-0.3-0.1-0.6-0.1-0.9c1.3-1.4,2.5-1.8,3.4-1.8c1.2,0,1.9,0.7,1.9,2.7v2c0,1,0,2.5,0,3.6l-1.7,0.2v0.5h1.7
			h1.1h1.6v-0.5l-1.6-0.2C86.1,14.3,86.1,12.8,86.1,11.8z"/>
		<path class="st3" d="M96.6,6.4h-2.1v0.5l1.8,0.2l-2.9,8l-3-8L92.3,7V6.4h-2.1H89h-1.1v0.5l1.4,0.1l3.7,9.3l-0.3,0.9
			c-0.6,1.5-1.4,2.7-2.5,3.2L90,20.4c-0.4-0.4-0.8-0.6-1.2-0.6c-0.4,0-0.8,0.2-0.9,0.6c0.1,0.6,0.8,0.9,1.6,0.9
			c1.5,0,2.8-1.4,3.9-4.3l3.7-9.9l1.3-0.2V6.4h-1H96.6z"/>
		<path class="st3" d="M109.1,4.3l0.1-2.9l-0.3-0.2l-4.3,0.9V3l1.4,0.2V7c-0.6-0.7-1.4-1.1-2.5-1.1c-2.3,0-4.5,2-4.5,5.4
			c0,3.4,1.8,5.2,4.1,5.2c1.2,0,2.1-0.5,2.9-1.3l0.2,1.2l4-0.2v-1l-1-0.2V4.3z M104.6,14.6c-1.3,0-2.1-1.2-2.1-3.4
			c0-2.4,1-3.6,2.2-3.6c0.5,0,0.8,0.2,1.2,0.5v6.1C105.5,14.5,105.1,14.6,104.6,14.6z"/>
		<path class="st3" d="M120.2,14.9c-0.3,0-0.5-0.2-0.5-0.6V9.7c0-2.8-1-3.9-3.7-3.9c-3,0-4.6,1.2-4.7,2.9c0.2,0.7,0.7,1,1.4,1
			c0.8,0,1.5-0.6,1.5-1.9l0.1-0.9c0.2,0,0.4,0,0.6,0c1.3,0,1.7,0.5,1.7,2.4v0.7c-0.6,0.2-1.1,0.3-1.6,0.4c-3.2,0.9-4,1.9-4,3.4
			c0,1.7,1.1,2.6,2.7,2.6c1.4,0,2.1-0.6,3-1.5c0.3,1,1,1.5,2.2,1.5c1.2,0,2-0.4,2.5-1.6l-0.5-0.4C120.6,14.8,120.4,14.9,120.2,14.9z
			 M115.3,14.8c-0.7,0-1.2-0.5-1.2-1.5c0-1,0.6-1.7,1.5-2.1c0.2-0.1,0.6-0.2,1-0.3v3.3C116,14.6,115.6,14.8,115.3,14.8z"/>
		<path class="st3" d="M127.1,14.7c-0.6,0-1-0.4-1-1.4V7.6h2.2V6.2h-2.1l0-2.9H124l-1,2.9l-1.5,0.2v1.2h1.3v3.9c0,0.8,0,1.4,0,2.1
			c0,2,1.1,2.9,3,2.9c1.5,0,2.5-0.6,3-1.6l-0.5-0.5C127.9,14.6,127.5,14.7,127.1,14.7z"/>
		<path class="st3" d="M135.4,14.5c-1.4,0-2.5-1-2.7-3.1h5.9c0.1-0.3,0.1-0.7,0.1-1.1c0-2.5-1.5-4.3-4.2-4.3c-2.7,0-5.3,1.9-5.3,5.3
			c0,3.3,2.1,5.3,5.1,5.3c2,0,3.5-0.8,4.3-2.4l-0.7-0.7C137.2,14,136.5,14.5,135.4,14.5z M134.2,6.9c0.7,0,1.4,0.7,1.4,2
			c0,0.9-0.3,1.3-1.2,1.3h-1.8C132.7,7.7,133.4,6.9,134.2,6.9z"/>
	</g>
</g>
</svg>
